<?xml version="1.0" encoding="UTF-8"?>
<!DOCTYPE svg PUBLIC "-//W3C//DTD SVG 1.1//EN" "http://www.w3.org/Graphics/SVG/1.1/DTD/svg11.dtd">
<svg xmlns="http://www.w3.org/2000/svg" version="1.1" width="512px" height="512px" style="shape-rendering:geometricPrecision; text-rendering:geometricPrecision; image-rendering:optimizeQuality; fill-rule:evenodd; clip-rule:evenodd" xmlns:xlink="http://www.w3.org/1999/xlink">
<g><path style="opacity:0.961" fill="#000000" d="M 511.5,292.5 C 511.5,303.167 511.5,313.833 511.5,324.5C 501.942,378.557 469.942,409.39 415.5,417C 382.97,417.177 350.47,417.677 318,418.5C 306.437,417.989 294.937,417.155 283.5,416C 279.313,412.785 276.813,408.619 276,403.5C 274.902,382.508 274.569,361.508 275,340.5C 276.112,337.722 277.945,335.555 280.5,334C 287.495,331.067 294.829,329.734 302.5,330C 302.957,329.586 303.291,329.086 303.5,328.5C 285.182,309.015 266.682,289.682 248,270.5C 227.321,290.346 206.821,310.346 186.5,330.5C 194.556,330.217 200.39,333.551 204,340.5C 204.277,363.527 203.61,386.527 202,409.5C 198.55,415.311 193.384,418.144 186.5,418C 157.328,418.268 128.161,418.768 99,419.5C 71.7218,419.809 46.8885,412.309 24.5,397C 11.4329,386.671 3.09952,373.504 -0.5,357.5C -0.5,349.5 -0.5,341.5 -0.5,333.5C 6.66338,294.837 29.6634,272.004 68.5,265C 73.1667,264.667 77.8333,264.333 82.5,264C 60.3226,220.634 61.8226,178.134 87,136.5C 107.409,108.807 134.909,93.9733 169.5,92C 224.32,89.4984 268.153,109.998 301,153.5C 309.777,166.724 316.111,181.058 320,196.5C 361.127,169.341 403.294,167.841 446.5,192C 483.303,215.65 504.969,249.15 511.5,292.5 Z M 170.5,120.5 C 223.218,118.097 261.718,140.097 286,186.5C 292.124,201.907 295.457,217.907 296,234.5C 302.364,243.035 310.197,244.535 319.5,239C 339.543,212.317 366.21,200.984 399.5,205C 435.237,213.071 460.404,233.904 475,267.5C 487.891,298.257 485.891,327.924 469,356.5C 455.864,373.49 438.697,383.99 417.5,388C 379.497,388.374 341.497,388.874 303.5,389.5C 303.208,379.165 302.875,368.832 302.5,358.5C 316.523,357.98 330.523,357.147 344.5,356C 352.216,349.536 353.383,342.036 348,333.5C 344.703,331.205 341.703,328.538 339,325.5C 312.563,296.394 285.397,267.894 257.5,240C 250.041,236.246 243.041,236.913 236.5,242C 205.333,272.5 174.167,303 143,333.5C 138.546,344.754 142.046,352.587 153.5,357C 161.153,357.777 168.819,358.277 176.5,358.5C 175.661,368.81 175.328,379.143 175.5,389.5C 149.127,389.003 122.794,389.67 96.5,391.5C 78.866,391.51 62.5327,387.01 47.5,378C 26.9531,359.927 23.1197,338.761 36,314.5C 47.8775,300.232 63.2108,293.232 82,293.5C 89.982,293.629 97.8154,294.796 105.5,297C 113.736,298.995 120.902,297.162 127,291.5C 129.374,287.106 130.041,282.44 129,277.5C 120.904,268.741 113.571,259.407 107,249.5C 88.9961,215.555 90.9961,182.889 113,151.5C 128.162,133.67 147.328,123.337 170.5,120.5 Z"/></g>
<g><path style="opacity:0.043" fill="#000000" d="M 255.5,390.5 C 255.897,389.475 256.563,389.308 257.5,390C 256.906,390.464 256.239,390.631 255.5,390.5 Z"/></g>
</svg>
