<?xml version="1.0" encoding="UTF-8"?>
<!DOCTYPE svg PUBLIC "-//W3C//DTD SVG 1.1//EN" "http://www.w3.org/Graphics/SVG/1.1/DTD/svg11.dtd">
<svg xmlns="http://www.w3.org/2000/svg" version="1.1" width="512px" height="512px" style="shape-rendering:geometricPrecision; text-rendering:geometricPrecision; image-rendering:optimizeQuality; fill-rule:evenodd; clip-rule:evenodd" xmlns:xlink="http://www.w3.org/1999/xlink">
<g><path style="opacity:0.968" fill="#000000" d="M 188.5,-0.5 C 198.167,-0.5 207.833,-0.5 217.5,-0.5C 255.021,1.19674 292.021,7.03007 328.5,17C 375.554,31.7456 414.054,58.579 444,97.5C 481.674,147.161 503.674,203.161 510,265.5C 514.503,343.646 485.669,406.146 423.5,453C 375.457,486.849 322.124,506.349 263.5,511.5C 247.5,511.5 231.5,511.5 215.5,511.5C 95.6159,498.454 25.1159,432.454 4,313.5C -5.26571,244.62 3.73429,178.287 31,114.5C 53.3356,65.8296 89.5022,31.9962 139.5,13C 155.659,7.38003 171.993,2.88003 188.5,-0.5 Z M 196.5,32.5 C 197.552,32.3505 198.552,32.5172 199.5,33C 176.205,49.9597 156.705,70.4597 141,94.5C 135.833,103.5 130.667,112.5 125.5,121.5C 101.276,126.847 77.443,133.514 54,141.5C 78.5007,75.4609 126.001,39.1276 196.5,32.5 Z M 280.5,38.5 C 349.489,47.7383 401.822,81.905 437.5,141C 404.928,129.856 371.595,121.189 337.5,115C 329.059,101.561 320.225,88.3941 311,75.5C 301.295,62.7368 291.128,50.4034 280.5,38.5 Z M 221.5,54.5 C 222.165,57.3138 222.498,60.3138 222.5,63.5C 221.934,78.8522 221.267,94.1855 220.5,109.5C 202.134,110.947 183.801,112.447 165.5,114C 180.567,90.7665 199.234,70.9331 221.5,54.5 Z M 253.5,56.5 C 269.813,72.98 284.48,90.8134 297.5,110C 282.162,109.936 266.829,109.436 251.5,108.5C 252.147,91.1652 252.813,73.8319 253.5,56.5 Z M 250.5,139.5 C 264.854,139.396 279.187,139.896 293.5,141C 301.659,141.331 309.659,142.498 317.5,144.5C 344.651,195.75 354.484,250.084 347,307.5C 345.709,315.162 343.876,322.662 341.5,330C 308.707,335.316 275.707,338.483 242.5,339.5C 244.057,272.789 246.724,206.122 250.5,139.5 Z M 210.5,140.5 C 213.5,140.5 216.5,140.5 219.5,140.5C 215.797,207.119 213.297,273.786 212,340.5C 186.396,339.801 160.896,337.468 135.5,333.5C 120.092,270.86 124.092,209.527 147.5,149.5C 168.482,145.421 189.482,142.421 210.5,140.5 Z M 354.5,150.5 C 390.297,156.984 424.964,167.984 458.5,183.5C 472.016,213.912 479.349,245.745 480.5,279C 480.413,285.113 479.747,291.113 478.5,297C 444.707,308.198 410.373,317.365 375.5,324.5C 386.197,268.795 381.03,214.462 360,161.5C 358.435,157.598 356.602,153.931 354.5,150.5 Z M 110.5,156.5 C 111.043,156.56 111.376,156.893 111.5,157.5C 100.809,191.506 95.4753,226.339 95.5,262C 96.7911,283.618 98.9578,305.118 102,326.5C 78.8364,319.946 56.6698,310.946 35.5,299.5C 29.9603,258.736 32.127,218.402 42,178.5C 64.5073,169.83 87.3407,162.496 110.5,156.5 Z M 470.5,331.5 C 471.376,331.369 472.043,331.702 472.5,332.5C 455.912,381.921 424.912,419.421 379.5,445C 347.684,462.785 313.684,473.451 277.5,477C 316.157,444.49 345.157,404.99 364.5,358.5C 400.506,351.666 435.84,342.666 470.5,331.5 Z M 42.5,337.5 C 64.6392,347.491 87.6392,354.991 111.5,360C 124.987,402.001 146.654,439.001 176.5,471C 116.72,456.904 74.8867,421.404 51,364.5C 47.4574,355.706 44.6241,346.706 42.5,337.5 Z M 325.5,363.5 C 326.552,363.351 327.552,363.517 328.5,364C 308.683,402.409 281.849,435.243 248,462.5C 246.297,452.283 245.297,441.949 245,431.5C 244.121,411.153 243.288,390.82 242.5,370.5C 270.45,369.795 298.117,367.461 325.5,363.5 Z M 145.5,366.5 C 145.56,365.957 145.893,365.624 146.5,365.5C 168.373,368.553 190.373,370.22 212.5,370.5C 212.874,402.55 214.04,434.55 216,466.5C 184.058,439.068 160.558,405.734 145.5,366.5 Z"/></g>
</svg>
