<svg width="124" height="124" viewBox="0 0 124 124" fill="none" xmlns="http://www.w3.org/2000/svg">
<g clip-path="url(#clip0_519_1020)">
<path opacity="0.926" d="M111.32 2H111.257L111.194 2.00798C108.11 2.39994 105.014 2.9295 101.907 3.59649L101.882 3.6019L101.857 3.60859C77.22 10.2406 57.0542 23.5617 41.3886 43.5551L41.3704 43.5784L41.3535 43.6028C40.2247 45.2339 39.4558 47.0098 39.0504 48.9233C37.8448 48.8427 36.6372 48.7825 35.4274 48.7427L35.3755 48.741L35.3238 48.7447C28.1643 49.2525 21.1183 50.4335 14.1869 52.2879L13.9175 52.36L13.7242 52.5611C9.72412 56.7243 6.55069 61.4643 4.20625 66.7759L4.16635 66.8663L4.14492 66.9627C3.95169 67.8322 3.95169 68.7069 4.14492 69.5763L4.27478 70.1607L4.85121 70.3223C10.1724 71.8138 15.5048 73.2867 20.8485 74.7416C18.5993 77.5756 17.9526 80.9022 18.9271 84.628L18.9354 84.6599L18.9458 84.6912C21.0653 91.0505 25.3855 95.204 31.8239 97.075C35.3641 98.2815 38.8458 98.2532 42.2292 96.9889C42.6615 102.711 44.2481 108.114 46.9873 113.186L47.1576 113.501L47.4894 113.637C48.3229 113.977 49.192 114.03 50.0624 113.798L50.1116 113.785L50.1592 113.767C51.4328 113.284 52.7221 112.801 54.0275 112.316L54.1166 112.283L54.1979 112.234C56.0415 111.117 57.8202 109.907 59.5332 108.603C62.7089 107.071 65.7477 105.326 68.6493 103.368L68.8421 103.238L68.9577 103.036C69.3107 102.419 69.5032 101.752 69.4401 101.058C69.3876 100.48 69.1647 99.9573 68.8239 99.4936C68.4443 94.0427 67.77 88.6475 66.8008 83.3085C82.195 77.1623 94.2988 67.0312 103.087 52.9353L103.093 52.9259L103.098 52.9163C111.326 39.0418 116.613 24.0897 118.958 8.0671C119.107 7.61647 119.373 7.25303 119.78 6.95707L120.086 6.7346L120.168 6.36547C120.361 5.49596 120.361 4.62122 120.168 3.75172L120.153 3.68417L120.128 3.61934C119.88 2.9533 119.433 2.42422 118.789 2.10436L118.578 2H118.344H118.33H118.316H118.303H118.289H118.275H118.261H118.248H118.234H118.22H118.207H118.193H118.179H118.165H118.152H118.138H118.124H118.111H118.097H118.083H118.069H118.056H118.042H118.028H118.015H118.001H117.987H117.973H117.96H117.946H117.932H117.918H117.905H117.891H117.877H117.864H117.85H117.836H117.822H117.809H117.795H117.781H117.768H117.754H117.74H117.726H117.713H117.699H117.685H117.672H117.658H117.644H117.63H117.617H117.603H117.589H117.576H117.562H117.548H117.534H117.521H117.507H117.493H117.48H117.466H117.452H117.438H117.425H117.411H117.397H117.383H117.37H117.356H117.342H117.329H117.315H117.301H117.287H117.274H117.26H117.246H117.233H117.219H117.205H117.191H117.178H117.164H117.15H117.137H117.123H117.109H117.095H117.082H117.068H117.054H117.041H117.027H117.013H116.999H116.986H116.972H116.958H116.945H116.931H116.917H116.903H116.89H116.876H116.862H116.849H116.835H116.821H116.807H116.794H116.78H116.766H116.752H116.739H116.725H116.711H116.698H116.684H116.67H116.656H116.643H116.629H116.615H116.602H116.588H116.574H116.56H116.547H116.533H116.519H116.506H116.492H116.478H116.464H116.451H116.437H116.423H116.41H116.396H116.382H116.368H116.355H116.341H116.327H116.314H116.3H116.286H116.272H116.259H116.245H116.231H116.217H116.204H116.19H116.176H116.163H116.149H116.135H116.121H116.108H116.094H116.08H116.067H116.053H116.039H116.025H116.012H115.998H115.984H115.971H115.957H115.943H115.929H115.916H115.902H115.888H115.875H115.861H115.847H115.833H115.82H115.806H115.792H115.779H115.765H115.751H115.737H115.724H115.71H115.696H115.683H115.669H115.655H115.641H115.628H115.614H115.6H115.586H115.573H115.559H115.545H115.532H115.518H115.504H115.49H115.477H115.463H115.449H115.436H115.422H115.408H115.394H115.381H115.367H115.353H115.34H115.326H115.312H115.298H115.285H115.271H115.257H115.244H115.23H115.216H115.202H115.189H115.175H115.161H115.148H115.134H115.12H115.106H115.093H115.079H115.065H115.052H115.038H115.024H115.01H114.997H114.983H114.969H114.955H114.942H114.928H114.914H114.901H114.887H114.873H114.859H114.846H114.832H114.818H114.805H114.791H114.777H114.763H114.75H114.736H114.722H114.709H114.695H114.681H114.667H114.654H114.64H114.626H114.613H114.599H114.585H114.571H114.558H114.544H114.53H114.517H114.503H114.489H114.475H114.462H114.448H114.434H114.421H114.407H114.393H114.379H114.366H114.352H114.338H114.324H114.311H114.297H114.283H114.27H114.256H114.242H114.228H114.215H114.201H114.187H114.174H114.16H114.146H114.132H114.119H114.105H114.091H114.078H114.064H114.05H114.036H114.023H114.009H113.995H113.982H113.968H113.954H113.94H113.927H113.913H113.899H113.886H113.872H113.858H113.844H113.831H113.817H113.803H113.79H113.776H113.762H113.748H113.735H113.721H113.707H113.693H113.68H113.666H113.652H113.639H113.625H113.611H113.597H113.584H113.57H113.556H113.543H113.529H113.515H113.501H113.488H113.474H113.46H113.447H113.433H113.419H113.405H113.392H113.378H113.364H113.351H113.337H113.323H113.309H113.296H113.282H113.268H113.255H113.241H113.227H113.213H113.2H113.186H113.172H113.159H113.145H113.131H113.117H113.104H113.09H113.076H113.062H113.049H113.035H113.021H113.008H112.994H112.98H112.966H112.953H112.939H112.925H112.912H112.898H112.884H112.87H112.857H112.843H112.829H112.816H112.802H112.788H112.774H112.761H112.747H112.733H112.72H112.706H112.692H112.678H112.665H112.651H112.637H112.624H112.61H112.596H112.582H112.569H112.555H112.541H112.527H112.514H112.5H112.486H112.473H112.459H112.445H112.431H112.418H112.404H112.39H112.377H112.363H112.349H112.335H112.322H112.308H112.294H112.281H112.267H112.253H112.239H112.226H112.212H112.198H112.185H112.171H112.157H112.143H112.13H112.116H112.102H112.089H112.075H112.061H112.047H112.034H112.02H112.006H111.992H111.979H111.965H111.951H111.938H111.924H111.91H111.896H111.883H111.869H111.855H111.842H111.828H111.814H111.8H111.787H111.773H111.759H111.746H111.732H111.718H111.704H111.691H111.677H111.663H111.65H111.636H111.622H111.608H111.595H111.581H111.567H111.554H111.54H111.526H111.512H111.499H111.485H111.471H111.457H111.444H111.43H111.416H111.403H111.389H111.375H111.361H111.348H111.334H111.32ZM61.3407 80.3347L60.9433 80.5362L60.8274 80.9664C60.3279 82.8202 60.3259 84.6861 60.8204 86.5462C61.7532 90.9052 62.8482 95.2139 64.1053 99.4725C61.3952 100.828 58.7849 102.34 56.2748 104.007L56.1755 104.073L56.0946 104.16C54.5444 105.834 52.8379 107.302 50.9743 108.566C48.7742 103.432 47.1787 98.0956 46.1875 92.5544L46.0657 91.8735L45.3856 91.7473C44.5862 91.5989 43.8269 91.3458 43.105 90.9872L42.7435 90.8076L42.3586 90.9294C38.9885 91.9952 35.9857 92.0819 33.3114 91.2648C30.6535 90.4527 28.2286 88.7197 26.0462 85.9836C24.9914 84.2182 24.5217 82.5161 24.5745 80.8616C24.6249 79.2819 25.154 77.6735 26.2187 76.0263C26.9942 75.7655 27.6832 75.3343 28.057 74.618C28.5032 73.7627 28.3393 72.8182 27.9471 71.9679L27.7799 71.6054L27.4091 71.4577C25.714 70.7826 23.9825 70.2055 22.2148 69.7262L22.1926 69.7202L22.1702 69.7152C18.1446 68.8201 14.1054 68.0257 10.0529 67.3323C12.91 63.9143 15.5275 60.3215 17.9053 56.5538C24.6738 56.5289 31.4021 56.0007 38.09 54.9688L38.1056 54.9664L38.121 54.9635C39.4096 54.7229 40.6697 54.3867 41.9009 53.9555L42.2478 53.834L42.4335 53.5167C42.8223 52.852 43.1231 52.1407 43.3367 51.3852C58.2007 30.2873 78.1779 16.5506 103.306 10.1516C106.366 9.54892 109.405 9.02925 112.423 8.59261C112.572 8.57413 112.719 8.56996 112.862 8.58023C110.353 24.8673 104.683 39.9278 95.8478 53.7701C92.0015 58.8031 87.5924 63.2904 82.6192 67.2327C75.903 72.179 68.8104 76.5464 61.3407 80.3347ZM83.2232 27.4586L82.7126 27.333L82.3197 27.6825C81.3764 28.5216 80.5527 29.4758 79.8488 30.5432L79.8111 30.6003L79.7816 30.6621C79.1721 31.9356 78.8562 33.2837 78.8363 34.6964C78.785 35.8176 78.9897 36.8498 79.5026 37.7474C80.019 38.6512 80.8072 39.3473 81.8033 39.8556L81.9599 39.9355L82.1345 39.9572C84.4395 40.2437 86.4111 39.8957 87.8376 38.6729C89.2562 37.457 89.9228 35.558 90.037 33.2199C90.1889 31.4468 89.5811 29.9281 88.2417 28.7646L88.0525 28.6002L87.8081 28.5445C86.2663 28.1932 84.7381 27.8312 83.2232 27.4586Z" fill="black" stroke="black" stroke-width="2"/>
<path opacity="0.927" fill-rule="evenodd" clip-rule="evenodd" d="M86.2031 24C90.7824 24.0181 93.4869 26.2785 94.3164 30.7812C94.8756 36.3281 92.5748 40.082 87.4141 42.043C80.9418 42.7577 77.4706 39.8514 77 33.3242C77.2306 27.3218 80.2984 24.2137 86.2031 24ZM84.2656 27.3906C83.3884 28.171 82.6217 29.0588 81.9648 30.0547C81.4156 31.2024 81.1329 32.4134 81.1172 33.6875C81.0232 35.641 81.8304 37.0539 83.5391 37.9258C87.8507 38.4617 90.1111 36.5242 90.3203 32.1133C90.4509 30.6464 89.9665 29.4354 88.8672 28.4805C87.3199 28.1278 85.7861 27.7646 84.2656 27.3906Z" fill="black"/>
<path opacity="0.928" d="M6.24476 99.7691C6.27914 99.7742 6.30932 99.7805 6.3365 99.7888C6.45343 101.696 6.44234 103.604 6.30323 105.512C5.82928 108.866 5.46484 112.232 5.20991 115.61L5.20411 115.687L5.20622 115.764C5.24182 117.063 5.41832 118.342 5.73552 119.601L6.2834 121.775L8.08378 120.439C12.3817 117.25 14.9701 112.949 15.8137 107.617C16.137 105.821 16.3768 104.015 16.5329 102.197C16.6594 101.963 16.7539 101.886 16.7853 101.866C16.8198 101.864 16.9454 101.867 17.1971 101.986C19.2422 104.83 20.7095 107.958 21.6019 111.379L22.2049 113.69L24.025 112.143C25.8509 110.59 27.1391 108.658 27.8722 106.372L27.8881 106.323L27.9005 106.273C28.1692 105.181 28.4764 104.102 28.8219 103.038C29.0162 103.002 29.1664 102.991 29.2776 102.994C29.321 102.996 29.354 102.999 29.3783 103.002C29.3887 103.036 29.401 103.086 29.4113 103.159C29.447 103.411 29.4407 103.82 29.3281 104.431L29.3209 104.471L29.3157 104.51C28.7219 109.095 26.4211 112.325 22.3175 114.353C21.9904 114.483 21.7696 114.486 21.6166 114.455C21.5238 114.436 21.4115 114.397 21.2799 114.313C20.8421 112.077 20.2025 109.9 19.3614 107.782L17.6185 103.394L16.5094 107.984C14.9997 114.23 11.6681 119.156 6.47822 122.82H6.47482H6.47103H6.46725H6.46347H6.45968H6.4559H6.45211H6.44833H6.44454H6.44076H6.43698H6.43319H6.42941H6.42562H6.42184H6.41806H6.41427H6.41049H6.4067H6.40292H6.39913H6.39535H6.39157H6.38778H6.384H6.38021H6.37643H6.37265H6.36886H6.36508H6.36129H6.35751H6.35372H6.34994H6.34616H6.34237H6.33859H6.3348H6.33102H6.32724H6.32345H6.31967H6.31588H6.3121H6.30831H6.30453H6.30075H6.29696H6.29318H6.28939H6.28561H6.28183H6.27804H6.27426H6.27047H6.26669H6.2629H6.25912H6.25534H6.25155H6.24777H6.24398H6.2402H6.23642H6.23263H6.22885H6.22506H6.22128H6.21749H6.21371H6.20993H6.20614H6.20236H6.19857H6.19479H6.19101H6.18722H6.18344H6.17965H6.17587H6.17208H6.1683H6.16452H6.16073H6.15695H6.15316H6.14938H6.1456H6.14181H6.13803H6.13424H6.13046H6.12668H6.12289H6.11911H6.11532H6.11154H6.10775H6.10397H6.10019H6.0964H6.09262H6.08883H6.08505H6.08126H6.07748H6.0737H6.06991H6.06613H6.06234H6.05856H6.05478H6.05099H6.04721H6.04342H6.03964H6.03586H6.03207H6.02829H6.0245H6.02072H6.01693H6.01315H6.00937H6.00558H6.0018H5.99801H5.99423H5.99045H5.98666H5.98288H5.97909H5.97531H5.97152H5.96774H5.96396H5.96017H5.95639H5.9526H5.94882H5.94504H5.94125H5.93747H5.93368H5.9299H5.92611H5.92233H5.91855H5.91476H5.91098H5.90719H5.90341H5.89963H5.89584H5.89206H5.88827H5.88449H5.8807H5.87692H5.87314H5.86935H5.86557H5.86178H5.858H5.85422H5.85043H5.84665H5.84286H5.83908H5.83529H5.83151H5.82773H5.82394H5.82016H5.81637H5.81259H5.80881H5.80502H5.80124H5.79745H5.79367H5.78989H5.7861H5.78232H5.77853H5.77475H5.77096H5.76718H5.7634H5.75961H5.75583H5.75204H5.74826H5.74448H5.74069H5.73691H5.73312H5.72934H5.72555H5.72177H5.71799H5.7142H5.71042H5.70663H5.70285H5.69907H5.69528H5.6915H5.68771H5.68393H5.68014H5.67636H5.67258H5.66879H5.66501H5.66122H5.65744H5.65663C5.2863 122.358 5.03644 121.805 4.91011 121.136L4.9035 121.101L4.89523 121.066C4.47264 119.294 4.28408 117.497 4.32928 115.674C4.65225 111.18 5.13205 106.706 5.76869 102.251L6.01704 100.514L4.26195 100.539C3.41119 100.552 2.5106 100.526 1.55952 100.463L1.52992 100.433L1.51691 100.42C1.26392 93.3762 3.83919 87.7063 9.28759 83.2709C9.56054 83.0926 9.83787 82.9241 10.1196 82.7654C8.40399 84.4687 6.88564 86.344 5.56612 88.3902L5.55019 88.4149L5.53523 88.4402C3.77992 91.4119 2.78106 94.6248 2.54512 98.0613L2.4295 99.7453L4.11539 99.6622C4.82745 99.6272 5.53542 99.6626 6.24075 99.7685L6.24476 99.7691ZM16.7966 101.86C16.7966 101.86 16.7948 101.861 16.7911 101.862C16.7947 101.86 16.7966 101.86 16.7966 101.86ZM16.7773 101.867C16.776 101.867 16.7753 101.867 16.7753 101.867L16.7773 101.867ZM29.4365 103.016C29.4364 103.016 29.4341 103.015 29.4301 103.013C29.4346 103.015 29.4366 103.016 29.4365 103.016ZM29.3585 102.951C29.3564 102.948 29.3555 102.946 29.3556 102.946C29.3556 102.946 29.3567 102.948 29.3585 102.951Z" fill="black" stroke="black" stroke-width="3"/>
</g>
<defs>
<clipPath id="clip0_519_1020">
<rect width="124" height="124" fill="white"/>
</clipPath>
</defs>
</svg>
